/* XPM */
static char *conn_xpm[]={
"16 16 208 2",
"Qt c None",
"bn c #060606",
"bb c #111111",
".k c #1f1f1f",
".# c #525252",
"bm c #525252",
"bc c #666666",
"ba c #5f5f5f",
"bk c #636363",
"bj c #656565",
"bi c #666666",
"bh c #696868",
"bg c #696969",
"bf c #6b6b6b",
"be c #6c6c6c",
"bl c #666666",
"bd c #6f6f6f",
".y c #707070",
"#h c #767676",
"#x c #787876",
"#N c #797876",
".3 c #797978",
".N c #7c7c7b",
"aZ c #7b7b7b",
"a0 c #b0b0b0",
".j c #bbbbbb",
".l c #c2c2c2",
".a c #cecece",
".O c #d3d1cf",
".4 c #d6d4d1",
"#i c #d8d7d5",
"#y c #dad9d7",
"#O c #dcdbd9",
"#3 c #dedcdb",
"ag c #dfdedc",
"av c #e1dfdc",
".z c #d3d2d0",
"aK c #e4e3e1",
".e c #dad9d8",
".d c #dbd9d8",
".c c #dbdad9",
".b c #dddddb",
".i c #e6e5e3",
".h c #e6e5e4",
".g c #e7e6e4",
".f c #e7e6e5",
"#0 c #0037a7",
"ad c #0444af",
"#K c #0541ad",
"#R c #0644ae",
"#A c #0842a8",
"#B c #0a47b0",
"#Z c #0c4ab1",
"aH c #0d53bb",
"#Q c #0e47ac",
"as c #1050b7",
"#S c #1352b5",
"ac c #1554b7",
"#6 c #1555b8",
"#k c #1651b2",
"#5 c #1853b4",
"#7 c #1b5bbc",
"#u c #1d5fc0",
"ax c #1f5fbd",
"ay c #2065c5",
"aj c #2162c1",
"ai c #235ebb",
"ar c #2463c1",
"aG c #2468c7",
"#e c #286bc6",
"#J c #2b69c3",
".0 c #2b6fca",
".6 c #2c68c0",
"#l c #2c6dc7",
"aq c #2d6dc6",
"#C c #2d6ec6",
".Q c #2e6cc4",
"ak c #2e6ec7",
"aF c #3074ce",
"az c #3075ce",
".B c #3467b6",
"#t c #3474cb",
"ab c #3572c6",
"#s c #3678ce",
".7 c #3779ce",
"aE c #377dd4",
"#d c #387acf",
"aA c #387ed3",
"#m c #397acf",
".L c #3a76c6",
".R c #3b7ed3",
"#E c #3d7ed0",
".Z c #3d80d4",
"#L c #3e6cbc",
"#1 c #3f6dbd",
"ap c #3f7fd0",
"aB c #3f84d8",
"al c #407fd0",
"aD c #4085d8",
"ae c #416fbf",
".8 c #4284d5",
"aI c #4577c5",
"#T c #4584d1",
"aC c #468bda",
"#v c #4776c2",
"at c #4876c3",
"am c #4886d3",
".C c #4b87d0",
".S c #4c8edc",
"#U c #4d8ad4",
"#D c #4e93dc",
".K c #508cd3",
"#n c #5490d8",
".T c #5499e3",
"#8 c #5590d7",
"#f c #5685cc",
".J c #5695d9",
".1 c #5887cf",
".D c #5996d9",
"ao c #5a94d9",
"#W c #5c95d8",
".M c #5d85c5",
".U c #5fa3e9",
"#o c #6099da",
".9 c #609bdf",
"#. c #649fdf",
".I c #64a3e2",
"#c c #659ada",
".E c #66a3e1",
".W c #66a4e4",
"#I c #6ca5e2",
".F c #71afe9",
".H c #72b1ea",
".G c #74b2ea",
"#Y c #76aee5",
"aa c #79b1e8",
".Y c #7babe2",
"aW c #7c9ed1",
"#a c #7dade2",
"#r c #7daee4",
"#F c #7db5ea",
"a# c #80b5e6",
"#V c #81baeb",
".X c #85b6ea",
"#p c #86b5e7",
"#G c #86baea",
"#H c #88c0ef",
"aV c #89aad7",
"#9 c #8bc0ec",
"#X c #8fc4f0",
"aM c #90b0dd",
"aU c #90b2dd",
"aN c #90b3e0",
"aX c #95add3",
"a. c #95c4ec",
"aT c #97b9e2",
"aO c #97b9e4",
".V c #9bc1eb",
"aS c #9cbee5",
"aP c #9cbfe7",
"aR c #9dc1e7",
"aQ c #9fc1e8",
"an c #a0cdf2",
"## c #a1c3eb",
"#q c #a9d0f4",
"#b c #b4d1f1",
"aY c #d7d7d8",
"b# c #d9d9d9",
"aJ c #dadadb",
".A c #dde2ea",
".P c #dde3ec",
"au c #dedede",
".5 c #dfe4ed",
"#j c #dfe4ee",
"b. c #e1ded9",
"af c #e1e1e2",
"#z c #e1e6f0",
".w c #e2e5e9",
"#P c #e3e8f1",
"aw c #e3e9f3",
"#2 c #e4e5e5",
".n c #e4e7eb",
"#4 c #e4eaf4",
".v c #e5e8ec",
".u c #e6e9ed",
".o c #e6eaee",
"ah c #e6ebf4",
"a9 c #e7e3dd",
".t c #e7eaee",
".s c #e7ebee",
".p c #e7ebef",
"#M c #e8e8e8",
".q c #e8ecef",
"#w c #e9e9ea",
".r c #e9edf0",
"a8 c #eae6e0",
".x c #eaecef",
"#g c #ececed",
"a7 c #ede9e4",
"a6 c #f0ece7",
"aL c #f1f4f8",
"a5 c #f3efea",
"a4 c #f7f3ee",
".2 c #fafafb",
"a3 c #fbf7f2",
"a2 c #fffbf7",
"a1 c #fffffb",
".m c #ffffff",
"QtQtQtQtQtQtQtQtQtQtQtQtQtQtQtQt",
".#.a.b.c.c.d.e.e.f.f.g.h.i.f.j.k",
".l.m.n.o.p.q.r.r.s.t.u.v.w.x.m.y",
".z.A.B.C.D.E.F.G.H.I.J.K.L.M.m.N",
".O.P.Q.R.S.T.U.V.W.X.Y.Z.0.1.2.3",
".4.5.6.7.8.9#.###a#b#c#d#e#f#g#h",
"#i#j#k#l#m#n#o#p#q#r#s#t#u#v#w#x",
"#y#z#A#B#C#D#E#F#G#H#I#J#K#L#M#N",
"#O#P#Q#R#S#T#U#V#W#X#Y#Z#0#1#2.3",
"#3#4#5#6#7#8#9a.a#aaabacadaeaf.3",
"agahaiajakalamanaoapaqarasatau.3",
"avawaxayazaAaBaCaDaEaFaGaHaIaJ.3",
"aKaLaMaNaOaPaQaRaSaTaUaVaWaXaYaZ",
"a0.m.m.ma1a2a3a4a5a6a7a8a9b.b#ba",
"bbbcbdbebfbgbgbhbibibibjbkblbmbn",
"QtQtQtQtQtQtQtQtQtQtQtQtQtQtQtQt"};
