/* XPM */
static char *conn_xpm[]={
"16 16 203 2",
".# c None",
"Qt c None",
"#Z c #0037a7",
"ac c #0444af",
"#J c #0541ad",
"#Q c #0644ae",
"#z c #0842a8",
"#A c #0a47b0",
"#Y c #0c4ab1",
"aG c #0d53bb",
"#P c #0e47ac",
"ar c #1050b7",
"#R c #1352b5",
"ab c #1554b7",
"#5 c #1555b8",
"#j c #1651b2",
"#4 c #1853b4",
"#6 c #1b5bbc",
"#t c #1d5fc0",
"aw c #1f5fbd",
"ax c #2065c5",
"ai c #2162c1",
"ah c #235ebb",
"aq c #2463c1",
"aF c #2468c7",
"#d c #286bc6",
"#I c #2b69c3",
".Z c #2b6fca",
".5 c #2c68c0",
"#k c #2c6dc7",
"ap c #2d6dc6",
"#B c #2d6ec6",
".P c #2e6cc4",
"aj c #2e6ec7",
"aE c #3074ce",
"ay c #3075ce",
".A c #3467b6",
"#s c #3474cb",
"aa c #3572c6",
"#r c #3678ce",
".6 c #3779ce",
"aD c #377dd4",
"#c c #387acf",
"az c #387ed3",
"#l c #397acf",
".K c #3a76c6",
".Q c #3b7ed3",
"#D c #3d7ed0",
".Y c #3d80d4",
"#K c #3e6cbc",
"#0 c #3f6dbd",
"ao c #3f7fd0",
"aA c #3f84d8",
"ak c #407fd0",
"aC c #4085d8",
"ad c #416fbf",
".7 c #4284d5",
"aH c #4577c5",
"#S c #4584d1",
"aB c #468bda",
"#u c #4776c2",
"as c #4876c3",
"al c #4886d3",
".B c #4b87d0",
".R c #4c8edc",
"#T c #4d8ad4",
"#C c #4e93dc",
".J c #508cd3",
"bi c #525252",
"#m c #5490d8",
".S c #5499e3",
"#7 c #5590d7",
"#e c #5685cc",
".I c #5695d9",
".0 c #5887cf",
".C c #5996d9",
"an c #5a94d9",
"#V c #5c95d8",
".L c #5d85c5",
"b# c #5f5f5f",
".T c #5fa3e9",
"#n c #6099da",
".8 c #609bdf",
"bh c #636363",
".9 c #649fdf",
".H c #64a3e2",
"bg c #656565",
"#b c #659ada",
"ba c #666666",
".D c #66a3e1",
".V c #66a4e4",
"bf c #696868",
"be c #696969",
"bd c #6b6b6b",
"bc c #6c6c6c",
"#H c #6ca5e2",
"bb c #6f6f6f",
".x c #707070",
".E c #71afe9",
".G c #72b1ea",
".F c #74b2ea",
"#g c #767676",
"#X c #76aee5",
"#w c #787876",
"#M c #797876",
".2 c #797978",
"a# c #79b1e8",
"aY c #7b7b7b",
".X c #7babe2",
".M c #7c7c7b",
"aV c #7c9ed1",
"## c #7dade2",
"#q c #7daee4",
"#E c #7db5ea",
"a. c #80b5e6",
"#U c #81baeb",
".W c #85b6ea",
"#o c #86b5e7",
"#F c #86baea",
"#G c #88c0ef",
"aU c #89aad7",
"#8 c #8bc0ec",
"#W c #8fc4f0",
"aL c #90b0dd",
"aT c #90b2dd",
"aM c #90b3e0",
"aW c #95add3",
"#9 c #95c4ec",
"aS c #97b9e2",
"aN c #97b9e4",
".U c #9bc1eb",
"aR c #9cbee5",
"aO c #9cbfe7",
"aQ c #9dc1e7",
"aP c #9fc1e8",
"am c #a0cdf2",
"#. c #a1c3eb",
"#p c #a9d0f4",
"aZ c #b0b0b0",
"#a c #b4d1f1",
".j c #bbbbbb",
".k c #c2c2c2",
".a c #cecece",
".N c #d3d1cf",
".y c #d3d2d0",
".3 c #d6d4d1",
"aX c #d7d7d8",
"#h c #d8d7d5",
"b. c #d9d9d9",
"#x c #dad9d7",
".e c #dad9d8",
"aI c #dadadb",
".d c #dbd9d8",
".c c #dbdad9",
"#N c #dcdbd9",
".b c #dddddb",
".z c #dde2ea",
".O c #dde3ec",
"#2 c #dedcdb",
"at c #dedede",
"af c #dfdedc",
".4 c #dfe4ed",
"#i c #dfe4ee",
"a9 c #e1ded9",
"au c #e1dfdc",
"ae c #e1e1e2",
"#y c #e1e6f0",
".v c #e2e5e9",
"#O c #e3e8f1",
"av c #e3e9f3",
"aJ c #e4e3e1",
"#1 c #e4e5e5",
".m c #e4e7eb",
"#3 c #e4eaf4",
".u c #e5e8ec",
".i c #e6e5e3",
".h c #e6e5e4",
".t c #e6e9ed",
".n c #e6eaee",
"ag c #e6ebf4",
"a8 c #e7e3dd",
".g c #e7e6e4",
".f c #e7e6e5",
".s c #e7eaee",
".r c #e7ebee",
".o c #e7ebef",
"#L c #e8e8e8",
".p c #e8ecef",
"#v c #e9e9ea",
".q c #e9edf0",
"a7 c #eae6e0",
".w c #eaecef",
"#f c #ececed",
"a6 c #ede9e4",
"a5 c #f0ece7",
"aK c #f1f4f8",
"a4 c #f3efea",
"a3 c #f7f3ee",
".1 c #fafafb",
"a2 c #fbf7f2",
"a1 c #fffbf7",
"a0 c #fffffb",
".l c #ffffff",
"QtQtQtQtQtQtQtQtQtQtQtQtQtQtQtQt",
".#.a.b.c.c.d.e.e.f.f.g.h.i.f.j.#",
".k.l.m.n.o.p.q.q.r.s.t.u.v.w.l.x",
".y.z.A.B.C.D.E.F.G.H.I.J.K.L.l.M",
".N.O.P.Q.R.S.T.U.V.W.X.Y.Z.0.1.2",
".3.4.5.6.7.8.9#.###a#b#c#d#e#f#g",
"#h#i#j#k#l#m#n#o#p#q#r#s#t#u#v#w",
"#x#y#z#A#B#C#D#E#F#G#H#I#J#K#L#M",
"#N#O#P#Q#R#S#T#U#V#W#X#Y#Z#0#1.2",
"#2#3#4#5#6#7#8#9a.a#aaabacadae.2",
"afagahaiajakalamanaoapaqarasat.2",
"auavawaxayazaAaBaCaDaEaFaGaHaI.2",
"aJaKaLaMaNaOaPaQaRaSaTaUaVaWaXaY",
"aZ.l.l.la0a1a2a3a4a5a6a7a8a9b.b#",
".#babbbcbdbebebfbabababgbhbabi.#",
"QtQtQtQtQtQtQtQtQtQtQtQtQtQtQtQt"};
