/* XPM */
static const char * pcmanx_xpm[] = {
"32 32 368 2",
"  	c None",
". 	c #6466FE",
"+ 	c #7C88FE",
"@ 	c #788DFD",
"# 	c #798DFD",
"$ 	c #7A8EFD",
"% 	c #7B8FFD",
"& 	c #7C8FFE",
"* 	c #7D90FE",
"= 	c #7E90FE",
"- 	c #7E91FE",
"; 	c #798EFD",
"> 	c #768BFD",
", 	c #748AFD",
"' 	c #7289FD",
") 	c #7088FD",
"! 	c #6E86FD",
"~ 	c #6C85FD",
"{ 	c #6A83FD",
"] 	c #6D85FD",
"^ 	c #7786FE",
"/ 	c #6366FE",
"( 	c #656BFE",
"_ 	c #6A84FD",
": 	c #5474FB",
"< 	c #5775FB",
"[ 	c #5B78FB",
"} 	c #5E7AFC",
"| 	c #617CFC",
"1 	c #647DFC",
"2 	c #667FFC",
"3 	c #6780FC",
"4 	c #6880FC",
"5 	c #667FFB",
"6 	c #647EFB",
"7 	c #627CFB",
"8 	c #5F7BFB",
"9 	c #5C78FC",
"0 	c #5876FB",
"a 	c #5473FB",
"b 	c #5071FB",
"c 	c #4C6EFB",
"d 	c #476BFB",
"e 	c #4368FA",
"f 	c #3E65FA",
"g 	c #3962FA",
"h 	c #345EFA",
"i 	c #345FFA",
"j 	c #5B7BFC",
"k 	c #6568FE",
"l 	c #6E87FE",
"m 	c #5373FB",
"n 	c #607BFC",
"o 	c #6A80FB",
"p 	c #6B81F9",
"q 	c #6A7FF3",
"r 	c #687CED",
"s 	c #677CEA",
"t 	c #6579E7",
"u 	c #6377E5",
"v 	c #6176E4",
"w 	c #5E74E4",
"x 	c #5D74E7",
"y 	c #5B74EC",
"z 	c #5974F2",
"A 	c #5775F6",
"B 	c #5574FA",
"C 	c #4B6EFB",
"D 	c #466AFA",
"E 	c #4167FA",
"F 	c #3C64FA",
"G 	c #3760FA",
"H 	c #335EFA",
"I 	c #6581FD",
"J 	c #595CFD",
"K 	c #617EFC",
"L 	c #657EFC",
"M 	c #6981FC",
"N 	c #6C83FC",
"O 	c #6F83F9",
"P 	c #6A7DEA",
"Q 	c #6071D1",
"R 	c #5766BD",
"S 	c #5360B2",
"T 	c #4F5DAC",
"U 	c #4D5BA9",
"V 	c #4A58A7",
"W 	c #4857A6",
"X 	c #4859AC",
"Y 	c #4A5DB8",
"Z 	c #4E63C9",
"` 	c #536BDD",
" .	c #5470EE",
"..	c #5372F8",
"+.	c #4F70FB",
"@.	c #4A6DFB",
"#.	c #4569FA",
"$.	c #3F66FA",
"%.	c #3A62FA",
"&.	c #355FFA",
"*.	c #4D72FC",
"=.	c #5A5DFD",
"-.	c #585DFD",
";.	c #5D7DFC",
">.	c #5A77FB",
",.	c #647EFC",
"'.	c #6E84FC",
").	c #7287FD",
"!.	c #7284F4",
"~.	c #6574D2",
"{.	c #4F5AA2",
"].	c #3F4780",
"^.	c #394173",
"/.	c #464E7A",
"(.	c #61678B",
"_.	c #6A7093",
":.	c #757B9C",
"<.	c #767C9F",
"[.	c #6B739E",
"}.	c #535F9B",
"|.	c #4153A7",
"1.	c #4960C9",
"2.	c #506BE6",
"3.	c #5170F7",
"4.	c #4D6FFB",
"5.	c #476BFA",
"6.	c #4267FA",
"7.	c #466EFC",
"8.	c #575CFD",
"9.	c #5D79FC",
"0.	c #637DFC",
"a.	c #6D83FC",
"b.	c #768AFD",
"c.	c #7485EE",
"d.	c #5E6ABC",
"e.	c #414980",
"f.	c #8588A0",
"g.	c #F5F5F7",
"h.	c #FFFFFF",
"i.	c #F1F2F6",
"j.	c #B2B8D5",
"k.	c #5F72CB",
"l.	c #4E6BEA",
"m.	c #4E6FF9",
"n.	c #496CFB",
"o.	c #4469FA",
"p.	c #3961FA",
"q.	c #426BFC",
"r.	c #535AFD",
"s.	c #5A7AFC",
"t.	c #6A82FC",
"u.	c #7086FC",
"v.	c #7589FD",
"w.	c #7B8BFC",
"x.	c #7482E6",
"y.	c #5A63AC",
"z.	c #3C4271",
"A.	c #BEBFCB",
"B.	c #F9F9FC",
"C.	c #8999E3",
"D.	c #4F6EF4",
"E.	c #4B6DFB",
"F.	c #456AFA",
"G.	c #3F69FC",
"H.	c #5258FD",
"I.	c #5678FC",
"J.	c #788BFD",
"K.	c #7B8BF8",
"L.	c #717EDA",
"M.	c #545C9D",
"N.	c #3B3F69",
"O.	c #EFEFF2",
"P.	c #FDFDFE",
"Q.	c #738BF0",
"R.	c #3B63FA",
"S.	c #3B67FC",
"T.	c #5778FD",
"U.	c #627CFC",
"V.	c #6D84FC",
"W.	c #7387FD",
"X.	c #798BFD",
"Y.	c #7B8AF4",
"Z.	c #6B77CC",
"`.	c #4D548D",
" +	c #585B7C",
".+	c #CCD1F8",
"++	c #AFB7F3",
"@+	c #B3BAEA",
"#+	c #BCC1DD",
"$+	c #F2F3F6",
"%+	c #CAD3F8",
"&+	c #5778FC",
"*+	c #7787EE",
"=+	c #636DBE",
"-+	c #444B7F",
";+	c #86889E",
">+	c #909DFE",
",+	c #7F8FFC",
"'+	c #7383EC",
")+	c #5664BB",
"!+	c #485288",
"~+	c #E9EAEE",
"{+	c #F8F9FE",
"]+	c #7186FD",
"^+	c #7689FC",
"/+	c #7281E8",
"(+	c #5964AE",
"_+	c #3C4272",
":+	c #B5B7C4",
"<+	c #ECEEFD",
"[+	c #8392FD",
"}+	c #7E8DFC",
"|+	c #6F80E8",
"1+	c #5261B5",
"2+	c #353F79",
"3+	c #ADB0C1",
"4+	c #5173FB",
"5+	c #4066FA",
"6+	c #5578FC",
"7+	c #7286F9",
"8+	c #6A7ADD",
"9+	c #4E599F",
"0+	c #353C68",
"a+	c #E6E7EB",
"b+	c #CCD2F8",
"c+	c #7A89F2",
"d+	c #7080E8",
"e+	c #5F6ECB",
"f+	c #435098",
"g+	c #2D376A",
"h+	c #B0B3C3",
"i+	c #F4F6FE",
"j+	c #5476FC",
"k+	c #6B82FC",
"l+	c #6C82F4",
"m+	c #5F6FCF",
"n+	c #455091",
"o+	c #494F75",
"p+	c #9FA8DE",
"q+	c #606EC6",
"r+	c #5562B6",
"s+	c #445097",
"t+	c #323C73",
"u+	c #363E69",
"v+	c #EFEFF3",
"w+	c #D8DFFD",
"x+	c #486CFB",
"y+	c #3D65FA",
"z+	c #3861FA",
"A+	c #5275FC",
"B+	c #5976FB",
"C+	c #627DFC",
"D+	c #667BEF",
"E+	c #5465BF",
"F+	c #3B4581",
"G+	c #777C97",
"H+	c #5D679E",
"I+	c #3E4987",
"J+	c #36417A",
"K+	c #2D3669",
"L+	c #52597D",
"M+	c #D6D7E0",
"N+	c #97ABFC",
"O+	c #3660FA",
"P+	c #4F74FC",
"Q+	c #5574FB",
"R+	c #627DFB",
"S+	c #5E75E8",
"T+	c #4A5AB0",
"U+	c #A8ABBC",
"V+	c #FEFEFE",
"W+	c #B8BBCA",
"X+	c #C3C5D2",
"Y+	c #DCDEE5",
"Z+	c #E1E7FE",
"`+	c #5072FB",
" @	c #4C71FC",
".@	c #5171FB",
"+@	c #5C78F9",
"@@	c #566DDE",
"#@	c #4051A1",
"$@	c #2B366A",
"%@	c #DBDCE3",
"&@	c #E9EDFE",
"*@	c #6683FB",
"=@	c #4970FC",
"-@	c #5673F4",
";@	c #4B63D0",
">@	c #374792",
",@	c #37406F",
"'@	c #FDFDFF",
")@	c #BFCBFC",
"!@	c #5878FB",
"~@	c #466DFC",
"{@	c #4E6CEE",
"]@	c #4159C1",
"^@	c #2E3E83",
"/@	c #676E91",
"(@	c #FEFEFF",
"_@	c #ECEFFC",
":@	c #D1D9FB",
"<@	c #A1B2FA",
"[@	c #436BFC",
"}@	c #4268FA",
"|@	c #4666E8",
"1@	c #384FB2",
"2@	c #253574",
"3@	c #9A9FB5",
"4@	c #F2F4FD",
"5@	c #6B85F5",
"6@	c #6B84F6",
"7@	c #617DF8",
"8@	c #5675F9",
"9@	c #3D64FA",
"0@	c #4267F7",
"a@	c #3E5EDF",
"b@	c #3046A3",
"c@	c #202E6A",
"d@	c #D1D4DD",
"e@	c #C7D1FC",
"f@	c #3C67FC",
"g@	c #3761FA",
"h@	c #3B62F3",
"i@	c #3555D1",
"j@	c #283E94",
"k@	c #27356B",
"l@	c #FCFCFD",
"m@	c #99ADFB",
"n@	c #486BFB",
"o@	c #3F65FA",
"p@	c #355DEF",
"q@	c #2D4CC3",
"r@	c #203585",
"s@	c #57628A",
"t@	c #6886FA",
"u@	c #3059ED",
"v@	c #2848BF",
"w@	c #1D3488",
"x@	c #8F97B8",
"y@	c #F3F6FE",
"z@	c #315BF1",
"A@	c #2B50D4",
"B@	c #2543B3",
"C@	c #C8CFE9",
"D@	c #C5D1FC",
"E@	c #5157FD",
"F@	c #3C68FC",
"G@	c #325DF7",
"H@	c #315AEF",
"I@	c #3157E5",
"J@	c #CDD6F8",
"K@	c #D5DDF9",
"L@	c #D6DEFB",
"M@	c #D6DEFD",
"N@	c #859FFB",
"O@	c #3D68FC",
"P@	c #5158FD",
"Q@	c #446DFD",
"R@	c #335EF9",
"S@	c #456DFD",
"T@	c #515FFE",
"U@	c #3E6AFC",
"V@	c #515EFF",
"W@	c #5159FE",
"X@	c #4B69FE",
"Y@	c #456CFD",
"Z@	c #436CFD",
"`@	c #525BFE",
"                                                                ",
"                                                                ",
"    . + @ # $ % & * = - - = = * & % ; @ > , ' ) ! ~ { ] ^ /     ",
"  ( _ : < [ } | 1 2 3 4 4 3 5 6 7 8 9 0 a b c d e f g h i j k   ",
"  l m 0 9 n 1 3 o p q r s t u v w x y z A B b C D E F G H H I   ",
"J K < 9 n L M N O P Q R S T U V W X Y Z `  ...+.@.#.$.%.&.H *.=.",
"-.;.>.n ,.M '.).!.~.{.].^./.(._.:.<.[.}.|.1.2.3.4.5.6.F G H 7.-.",
"8.j 9.0.4 a.).b.c.d.e.f.g.h.h.h.h.h.h.h.i.j.k.l.m.n.o.f p.H q.8.",
"r.s.n L t.u.v.w.x.y.z.A.h.h.h.h.h.h.h.h.h.h.B.C.D.E.F.$.%.i G.r.",
"H.I.| 3 N ).J.K.L.M.N.O.h.h.h.h.h.h.h.h.h.h.h.P.Q.c D E R.&.S.H.",
"H.T.U.3 V.W.X.Y.Z.`. +h.h.h.h..+++@+#+$+h.h.h.h.%+c 5.E R.&.S.H.",
"H.&+| 3 a.).X.*+=+-+;+h.h.h.h.>+,+'+)+!+~+h.h.h.{+c 5.E R.&.S.H.",
"H.I.n 2 N ]+^+/+(+_+:+h.h.h.<+[+}+|+1+2+3+h.h.h.h.4+D 5+%.&.S.H.",
"H.6+} ,.M '.7+8+9+0+a+h.h.h.b+c+d+e+f+g+h+h.h.h.i+@.#.$.g H S.H.",
"H.j+9 | 2 k+l+m+n+o+h.h.h.h.p+q+r+s+t+u+v+h.h.h.w+x+e y+z+H S.H.",
"H.A+B+} C+3 D+E+F+G+h.h.h.h.H+I+J+K+L+M+h.h.h.h.N+D E R.O+H S.H.",
"H.P+Q+>.} R+S+T+t+U+h.h.h.V+W+W+X+Y+h.h.h.h.h.Z+`+e f p.H H S.H.",
"H. @.@Q+>.+@@@#@$@%@h.h.h.h.h.h.h.h.h.h.h.h.&@*@#.5+R.&.H H S.H.",
"H.=@c b a -@;@>@,@V+h.h.h.h.h.h.h.h.h.h.'@)@!@F.E F G H H H S.H.",
"H.~@d C +.{@]@^@/@h.h.h.h.h.h.h.(@_@:@<@*@n.F.E F z+H H H H S.H.",
"H.[@}@D n.|@1@2@3@h.h.h.4@5@6@7@8@b 4.@.5.o.5+F z+H H H H H S.H.",
"H.G.9@5+0@a@b@c@d@h.h.h.e@+.+.4.c @.d #.E f R.G H H H H H H S.H.",
"H.f@g@R.h@i@j@k@l@h.h.h.m@n.n@5.F.e E o@F p.&.H H H H H H H S.H.",
"H.S.H &.p@q@r@s@h.h.h.h.t@6.E 5+o@9@R.p.O+H H H H H H H H H S.H.",
"H.S.H H u@v@w@x@h.h.h.y@y+R.%.g z+G &.H H H H H H H H H H H S.H.",
"H.S.H H z@A@B@C@h.h.h.D@&.i h H H H H H H H H H H H H H H H S.H.",
"E@F@H H G@H@I@J@K@L@M@N@H H H H H H H H H H H H H H H H H H O@P@",
"  Q@H H H R@R@R@R@R@H H H H H H H H H H H H H H H H H H H H S@  ",
"  T@U@H H H H H H H H H H H H H H H H H H H H H H H H H H U@V@  ",
"    W@X@Y@Z@Z@Z@Z@Z@Z@Z@Z@Z@Z@Z@Z@Z@Z@Z@Z@Z@Z@Z@Z@Z@Z@Y@X@`@    ",
"                                                                ",
"                                                                "};
