/* XPM */
static const char * pcmanx_inverse_xpm[] = {
"32 32 448 2",
"  	c None",
". 	c #4B3316",
"+ 	c #513717",
"@ 	c #5A3C19",
"# 	c #63431B",
"$ 	c #6D491D",
"% 	c #764F1F",
"& 	c #7F5522",
"* 	c #8A5C25",
"= 	c #97652A",
"- 	c #A67030",
"; 	c #463015",
"> 	c #4D3517",
", 	c #593C19",
"' 	c #66451D",
") 	c #744D20",
"! 	c #7F5523",
"~ 	c #885B25",
"{ 	c #8E5F27",
"] 	c #936228",
"^ 	c #986529",
"/ 	c #9D692B",
"( 	c #A7712F",
"_ 	c #B57A34",
": 	c #C7883C",
"< 	c #463016",
"[ 	c #4A3317",
"} 	c #573B1A",
"| 	c #6B4920",
"1 	c #825926",
"2 	c #97662B",
"3 	c #A9712F",
"4 	c #B57A33",
"5 	c #BD7F34",
"6 	c #C08135",
"7 	c #BF8135",
"8 	c #BD7F35",
"9 	c #B97C34",
"0 	c #B77B34",
"a 	c #BA7E36",
"b 	c #C5873B",
"c 	c #DA9542",
"d 	c #EFA750",
"e 	c #493318",
"f 	c #51381A",
"g 	c #654620",
"h 	c #865C29",
"i 	c #A97333",
"j 	c #C6873B",
"k 	c #DC9540",
"l 	c #EB9F44",
"m 	c #F3A445",
"n 	c #F7A746",
"o 	c #F5A545",
"p 	c #F0A244",
"q 	c #E79D43",
"r 	c #DD9640",
"s 	c #D38F3E",
"t 	c #CE8D3E",
"u 	c #D69341",
"v 	c #EDA34A",
"w 	c #FDB055",
"x 	c #50381B",
"y 	c #593D1D",
"z 	c #735025",
"A 	c #9E6D32",
"B 	c #C7893D",
"C 	c #E49C46",
"D 	c #F4A649",
"E 	c #FBAB4B",
"F 	c #E2A152",
"G 	c #BE8E55",
"H 	c #CC9149",
"I 	c #FCAB49",
"J 	c #D99D55",
"K 	c #AA875D",
"L 	c #957A5A",
"M 	c #9B7B55",
"N 	c #BB894C",
"O 	c #DE9945",
"P 	c #E7A049",
"Q 	c #FBAE51",
"R 	c #FDB35A",
"S 	c #593F1F",
"T 	c #5F4321",
"U 	c #7C5729",
"V 	c #AC7738",
"W 	c #D79545",
"X 	c #EDA44C",
"Y 	c #B18B5D",
"Z 	c #A2835D",
"` 	c #8A755C",
" .	c #676159",
"..	c #494949",
"+.	c #303030",
"@.	c #84643D",
"#.	c #877053",
"$.	c #444444",
"%.	c #252525",
"&.	c #1D1D1D",
"*.	c #222222",
"=.	c #343434",
"-.	c #6F5D46",
";.	c #DF9C4B",
">.	c #F7AC51",
",.	c #FDB257",
"'.	c #FDB762",
").	c #644724",
"!.	c #664823",
"~.	c #7D582B",
"{.	c #AE793B",
"].	c #DB9949",
"^.	c #F4A94F",
"/.	c #E2A052",
"(.	c #444343",
"_.	c #202020",
":.	c #171717",
"<.	c #0D0D0D",
"[.	c #050505",
"}.	c #020202",
"|.	c #141311",
"1.	c #080603",
"2.	c #170F07",
"3.	c #020201",
"4.	c #010101",
"5.	c #030303",
"6.	c #655139",
"7.	c #F6AB52",
"8.	c #FDB55D",
"9.	c #FEC074",
"0.	c #6F4E28",
"a.	c #7B572C",
"b.	c #A57439",
"c.	c #D8974A",
"d.	c #F4AA52",
"e.	c #FDB054",
"f.	c #CF924A",
"g.	c #423320",
"h.	c #070705",
"i.	c #000000",
"j.	c #392711",
"k.	c #D99543",
"l.	c #F9AB4D",
"m.	c #936936",
"n.	c #0F0F0F",
"o.	c #151515",
"p.	c #BB8747",
"q.	c #FDB258",
"r.	c #FEB55D",
"s.	c #FDB864",
"t.	c #7B582E",
"u.	c #7D592E",
"v.	c #986C37",
"w.	c #CA8F47",
"x.	c #F0A953",
"y.	c #FCB157",
"z.	c #FDB155",
"A.	c #FDB053",
"B.	c #946D3F",
"C.	c #101010",
"D.	c #1B1309",
"E.	c #FDAF51",
"F.	c #F3A950",
"G.	c #37332E",
"H.	c #040404",
"I.	c #6F512F",
"J.	c #FDB358",
"K.	c #FEC27A",
"L.	c #876133",
"M.	c #906736",
"N.	c #B58142",
"O.	c #E4A252",
"P.	c #FBB159",
"Q.	c #FDB156",
"R.	c #A37E52",
"S.	c #1B1B1B",
"T.	c #976931",
"U.	c #FDAF52",
"V.	c #FDB052",
"W.	c #534A3F",
"X.	c #080808",
"Y.	c #41311C",
"Z.	c #FEB35A",
"`.	c #FEB864",
" +	c #FEBC6C",
".+	c #976D3B",
"++	c #946B39",
"@+	c #A4753D",
"#+	c #CD934C",
"$+	c #F4AD59",
"%+	c #FDB45B",
"&+	c #FEB359",
"*+	c #846D52",
"=+	c #0D0904",
"-+	c #FDB153",
";+	c #F9AF55",
">+	c #524B43",
",+	c #372816",
"'+	c #FEB45B",
")+	c #FDB55E",
"!+	c #FED199",
"~+	c #A57841",
"{+	c #A3763F",
"]+	c #B58345",
"^+	c #DFA054",
"/+	c #FBB35D",
"(+	c #FDB45A",
"_+	c #FDB359",
":+	c #FCB258",
"<+	c #60574B",
"[+	c #533A1C",
"}+	c #FDB157",
"|+	c #ECA958",
"1+	c #41403F",
"2+	c #4D371C",
"3+	c #FDB55F",
"4+	c #FDB965",
"5+	c #FDBC6D",
"6+	c #FEC786",
"7+	c #B38248",
"8+	c #B18045",
"9+	c #C38D4C",
"0+	c #EBA95A",
"a+	c #FDB65F",
"b+	c #FDB45C",
"c+	c #EFAC5B",
"d+	c #454341",
"e+	c #060606",
"f+	c #986B35",
"g+	c #C6965C",
"h+	c #2F2F2F",
"i+	c #865F31",
"j+	c #FEB761",
"k+	c #FEB966",
"l+	c #FDBD6E",
"m+	c #FEC37C",
"n+	c #C18E4F",
"o+	c #BD8A4B",
"p+	c #CE9551",
"q+	c #F2AF5E",
"r+	c #FDB660",
"s+	c #D69F5D",
"t+	c #353535",
"u+	c #020101",
"v+	c #D3954B",
"w+	c #FDB35B",
"x+	c #8A745A",
"y+	c #1A1A1A",
"z+	c #050302",
"A+	c #DA9C51",
"B+	c #FEB762",
"C+	c #FEBA67",
"D+	c #FEBD70",
"E+	c #D29A56",
"F+	c #C99351",
"G+	c #D79C56",
"H+	c #F6B361",
"I+	c #FDB763",
"J+	c #FEB55F",
"K+	c #B78E5C",
"L+	c #272727",
"M+	c #171109",
"N+	c #F9B15A",
"O+	c #FDB55C",
"P+	c #DEA560",
"Q+	c #474645",
"R+	c #070707",
"S+	c #5D4323",
"T+	c #FEB863",
"U+	c #FEBB69",
"V+	c #FEBF72",
"W+	c #FFF0DE",
"X+	c #E3A75E",
"Y+	c #D69D58",
"Z+	c #DDA25A",
"`+	c #F7B463",
" @	c #FEB965",
".@	c #FDB863",
"+@	c #FDB761",
"@@	c #967A59",
"#@	c #2E251A",
"$@	c #E1A459",
"%@	c #E9AB61",
"&@	c #70675B",
"*@	c #1F160C",
"=@	c #E7A759",
"-@	c #FEB763",
";@	c #FEBF75",
">@	c #FEC47F",
",@	c #FFF2E2",
"'@	c #F5B567",
")@	c #E4A85F",
"!@	c #E4A75E",
"~@	c #F7B565",
"{@	c #726352",
"]@	c #111111",
"^@	c #0B0B0B",
"/@	c #383634",
"(@	c #746554",
"_@	c #82715B",
":@	c #54514F",
"<@	c #1E1E1E",
"[@	c #191209",
"}@	c #CE9550",
"|@	c #FEB968",
"1@	c #FEBD6F",
"2@	c #FEC178",
"3@	c #FEC784",
"4@	c #FFF7ED",
"5@	c #FEBD6E",
"6@	c #EBAD62",
"7@	c #F7B566",
"8@	c #FEBA68",
"9@	c #FEB967",
"0@	c #FBB764",
"a@	c #4F4B47",
"b@	c #090909",
"c@	c #0B0804",
"d@	c #010000",
"e@	c #412F19",
"f@	c #DDA057",
"g@	c #FEB865",
"h@	c #FEBB6A",
"i@	c #FECC8E",
"j@	c #FEC075",
"k@	c #F7B669",
"l@	c #F8B768",
"m@	c #FDBA69",
"n@	c #FEBA69",
"o@	c #E5AB65",
"p@	c #3B3B3B",
"q@	c #CB9350",
"r@	c #9B713D",
"s@	c #4B371E",
"t@	c #2B2011",
"u@	c #352715",
"v@	c #654928",
"w@	c #BB894B",
"x@	c #FDB865",
"y@	c #FEBD6D",
"z@	c #FEC177",
"A@	c #FEC581",
"B@	c #FED6A5",
"C@	c #FEBE71",
"D@	c #FCBB6B",
"E@	c #FEBB6B",
"F@	c #C89B65",
"G@	c #2D2D2D",
"H@	c #110C07",
"I@	c #F3B162",
"J@	c #FDB966",
"K@	c #FEBC6B",
"L@	c #FEE5C6",
"M@	c #FEC077",
"N@	c #FEBE72",
"O@	c #FEBC6D",
"P@	c #A88862",
"Q@	c #1F1F1F",
"R@	c #362918",
"S@	c #FEBB6C",
"T@	c #FEC683",
"U@	c #FECC90",
"V@	c #FFF8F0",
"W@	c #FEC176",
"X@	c #FCBB6D",
"Y@	c #DFAC6D",
"Z@	c #5F5850",
"`@	c #0E0E0E",
" #	c #30291F",
".#	c #E8AD65",
"+#	c #FDBB69",
"@#	c #FDBB6A",
"##	c #FEC57F",
"$#	c #FEC989",
"%#	c #FEDDB5",
"&#	c #FEC47D",
"*#	c #FEBF73",
"=#	c #E7B16F",
"-#	c #696763",
";#	c #444443",
">#	c #191919",
",#	c #343332",
"'#	c #3B3731",
")#	c #FBBA6B",
"!#	c #FEC37D",
"~#	c #FEC887",
"{#	c #FECF95",
"]#	c #FFF7EE",
"^#	c #FEC279",
"/#	c #C19764",
"(#	c #312516",
"_#	c #FEBE70",
":#	c #FEE7CB",
"<#	c #FECD93",
"[#	c #D7A66B",
"}#	c #9D784B",
"|#	c #9C7547",
"1#	c #9C7546",
"2#	c #9C7545",
"3#	c #9C7445",
"4#	c #9C7544",
"5#	c #BA8B51",
"6#	c #FEC987",
"7#	c #FFFEFD",
"8#	c #FEC682",
"9#	c #FEC37A",
"0#	c #FEC076",
"a#	c #FECD91",
"b#	c #FEDBB1",
"c#	c #FFFDF9",
"d#	c #FED4A1",
"e#	c #FEC886",
"f#	c #FEC783",
"g#	c #FEC37B",
"h#	c #FEBF74",
"i#	c #FEC278",
"j#	c #FEC580",
"k#	c #FECB8D",
"l#	c #FECE94",
"m#	c #FEE0BA",
"n#	c #FFFDFA",
"o#	c #FEE1BD",
"p#	c #FEC988",
"q#	c #FEC785",
"r#	c #FEC47E",
"s#	c #FEC681",
"t#	c #FECD92",
"u#	c #FED39E",
"v#	c #FFECD4",
"w#	c #FFFFFE",
"x#	c #FEDEB6",
"y#	c #FECF96",
"z#	c #FECB8C",
"A#	c #FECA8B",
"B#	c #FEC98B",
"C#	c #FECC8F",
"D#	c #FED4A0",
"E#	c #FFFBF7",
"F#	c #FFEBD3",
"G#	c #FEDFB8",
"H#	c #FED7A8",
"I#	c #FED29D",
"J#	c #FED099",
"K#	c #FED19A",
"L#	c #FED9AC",
"M#	c #FEE2BF",
"N#	c #FFEFDC",
"O#	c #FFFFFF",
"                                                                ",
"                      . + @ # $ % & * = -                       ",
"                  ; > , ' ) ! ~ { ] ^ / ( _ :                   ",
"              < [ } | 1 2 3 4 5 6 7 8 9 0 a b c d               ",
"            e f g h i j k l m n n o p q r s t u v w             ",
"          x y z A B C D E E F G H I J K L M N O P Q R           ",
"        S T U V W X Y Z `  ...+.@.#.$.%.&.*.=.-.;.>.,.'.        ",
"      ).!.~.{.].^./.(._.:.<.[.}.|.<.1.2.3.4.5.:.6.7.,.8.9.      ",
"      0.a.b.c.d.e.f.g.h.4.i.i.i.i.j.k.l.m.n.4.4.o.p.q.r.s.      ",
"    t.u.v.w.x.y.z.e.A.B.C.i.i.i.D.P E.E.F.G.H.i.5.I.J.r.s.K.    ",
"    L.M.N.O.P.J.,.Q.z.R.S.i.i.i.T.E.U.V.A.W.X.i.i.Y.Z.8.`. +    ",
"  .+++@+#+$+%+R &+,.,.*+o.i.i.=+F.-+-+z.;+>+X.i.i.,+'+)+`. +!+  ",
"  ~+{+]+^+/+8.%+(+_+:+<+<.i.i.[+z.z.z.}+|+1+[.i.i.2+8.3+4+5+6+  ",
"  7+8+9+0+a+)+8.b+%+c+d+e+i.i.f+,.q.q.J.g+h+4.i.i.i+)+j+k+l+m+  ",
"  n+o+p+q+j+r+a+)+8.s+t+}.i.u+v+&+&+_+w+x+y+i.i.z+A+r+B+C+D+K.  ",
"  E+F+G+H+I+B+j+a+J+K+L+4.i.M+N+%+%+O+P+Q+R+i.i.S+j+B+T+U+V+m+W+",
"  X+Y+Z+`+ @.@B++@j+@@y+i.i.#@$@r.)+%@&@y+4.i.*@=@-@T+ @ +;@>@,@",
"  '@)@!@~@k+ @`.T+-@{@]@i.i.^@/@(@_@:@<@5.i.[@}@.@`. @|@1@2@3@4@",
"  5@'@6@7@8@9@k+ @0@a@b@i.i.c@4.^@n.R+4.d@e@f@g@ @k+9@h@V+m+i@  ",
"  j@5+k@l@m@n@8@9@o@p@H.i.i.q@r@s@t@u@v@w@x@k+9@9@8@n@y@z@A@B@  ",
"    C@5@D@E@E@n@n@F@G@4.i.H@I@k+ @k+J@9@9@9@C+8@U+U+K@V+m+6+L@  ",
"    M@N@1@O@ +E@E@P@Q@i.i.R@8@8@C+C+8@n@n@n@U+h@h@S@1@2@T@U@V@  ",
"    3@W@V+1@5@X@Y@Z@`@i.i. #.#+#U+h@@#E@E@E@E@E@O@1@j@##$#%#    ",
"      &#z@*#=#-#;#>#}.i.i.`@,#'#)#E@E@K@ +O@O@O@1@*#!#~#{#]#    ",
"        &#^#/#S.}.i.i.i.i.i.4.(#y@O@O@y@5@1@1@_#9.m+~#U@:#      ",
"        <###[#}#|#1#2#2#3#4#3#5#1@1@1@1@1@_#V+W@&#6#U@%#7#      ",
"          {#8###9#W@9.*#N@C@C@C@C@C@C@V+*#0#9#A@$#a#b#c#        ",
"            d#e#f###g#^#z@j@j@h#9.j@W@i#m+j#e#k#l#m#n#          ",
"              o#a#p#q#f#j#>@r#&#r###s#3@p#k#t#u#v#w#            ",
"                  x#y#z#A#$#$#$#$#B#k#C#<#D#L@E#                ",
"                      F#G#H#I#J#K#D#L#M#N#n#                    ",
"                              O#O#O#                            "};
